<svg width="654" height="262" viewBox="0 0 654 262" fill="none" xmlns="http://www.w3.org/2000/svg">
<path d="M175.336 106.672C170.408 106.672 165.992 105.872 162.088 104.272C158.184 102.672 155.048 100.304 152.68 97.168C150.376 94.032 149.16 90.256 149.032 85.84H166.504C166.76 88.336 167.624 90.256 169.096 91.6C170.568 92.88 172.488 93.52 174.856 93.52C177.288 93.52 179.208 92.976 180.616 91.888C182.024 90.736 182.728 89.168 182.728 87.184C182.728 85.52 182.152 84.144 181 83.056C179.912 81.968 178.536 81.072 176.872 80.368C175.272 79.664 172.968 78.864 169.96 77.968C165.608 76.624 162.056 75.28 159.304 73.936C156.552 72.592 154.184 70.608 152.2 67.984C150.216 65.36 149.224 61.936 149.224 57.712C149.224 51.44 151.496 46.544 156.04 43.024C160.584 39.44 166.504 37.648 173.8 37.648C181.224 37.648 187.208 39.44 191.752 43.024C196.296 46.544 198.728 51.472 199.048 57.808H181.288C181.16 55.632 180.36 53.936 178.888 52.72C177.416 51.44 175.528 50.8 173.224 50.8C171.24 50.8 169.64 51.344 168.424 52.432C167.208 53.456 166.6 54.96 166.6 56.944C166.6 59.12 167.624 60.816 169.672 62.032C171.72 63.248 174.92 64.56 179.272 65.968C183.624 67.44 187.144 68.848 189.832 70.192C192.584 71.536 194.952 73.488 196.936 76.048C198.92 78.608 199.912 81.904 199.912 85.936C199.912 89.776 198.92 93.264 196.936 96.4C195.016 99.536 192.2 102.032 188.488 103.888C184.776 105.744 180.392 106.672 175.336 106.672ZM251.967 94.096H226.815L222.783 106H205.599L229.983 38.608H248.991L273.375 106H255.999L251.967 94.096ZM247.743 81.424L239.391 56.752L231.135 81.424H247.743ZM323.036 38.608V84.496C323.036 91.6 321.02 97.072 316.988 100.912C313.02 104.752 307.644 106.672 300.86 106.672C293.756 106.672 288.06 104.656 283.772 100.624C279.484 96.592 277.34 90.864 277.34 83.44H293.66C293.66 86.256 294.236 88.4 295.388 89.872C296.54 91.28 298.204 91.984 300.38 91.984C302.364 91.984 303.9 91.344 304.988 90.064C306.076 88.784 306.62 86.928 306.62 84.496V38.608H323.036ZM378.248 94.096H353.096L349.064 106H331.88L356.264 38.608H375.272L399.656 106H382.28L378.248 94.096ZM374.024 81.424L365.672 56.752L357.416 81.424H374.024ZM451.813 59.92C450.597 57.68 448.837 55.984 446.533 54.832C444.293 53.616 441.637 53.008 438.565 53.008C433.253 53.008 428.997 54.768 425.797 58.288C422.597 61.744 420.997 66.384 420.997 72.208C420.997 78.416 422.661 83.28 425.989 86.8C429.381 90.256 434.021 91.984 439.909 91.984C443.941 91.984 447.333 90.96 450.085 88.912C452.901 86.864 454.949 83.92 456.229 80.08H435.397V67.984H471.109V83.248C469.893 87.344 467.813 91.152 464.869 94.672C461.989 98.192 458.309 101.04 453.829 103.216C449.349 105.392 444.293 106.48 438.661 106.48C432.005 106.48 426.053 105.04 420.805 102.16C415.621 99.216 411.557 95.152 408.613 89.968C405.733 84.784 404.293 78.864 404.293 72.208C404.293 65.552 405.733 59.632 408.613 54.448C411.557 49.2 415.621 45.136 420.805 42.256C425.989 39.312 431.909 37.84 438.565 37.84C446.629 37.84 453.413 39.792 458.917 43.696C464.485 47.6 468.165 53.008 469.957 59.92H451.813ZM175.336 250.672C170.408 250.672 165.992 249.872 162.088 248.272C158.184 246.672 155.048 244.304 152.68 241.168C150.376 238.032 149.16 234.256 149.032 229.84H166.504C166.76 232.336 167.624 234.256 169.096 235.6C170.568 236.88 172.488 237.52 174.856 237.52C177.288 237.52 179.208 236.976 180.616 235.888C182.024 234.736 182.728 233.168 182.728 231.184C182.728 229.52 182.152 228.144 181 227.056C179.912 225.968 178.536 225.072 176.872 224.368C175.272 223.664 172.968 222.864 169.96 221.968C165.608 220.624 162.056 219.28 159.304 217.936C156.552 216.592 154.184 214.608 152.2 211.984C150.216 209.36 149.224 205.936 149.224 201.712C149.224 195.44 151.496 190.544 156.04 187.024C160.584 183.44 166.504 181.648 173.8 181.648C181.224 181.648 187.208 183.44 191.752 187.024C196.296 190.544 198.728 195.472 199.048 201.808H181.288C181.16 199.632 180.36 197.936 178.888 196.72C177.416 195.44 175.528 194.8 173.224 194.8C171.24 194.8 169.64 195.344 168.424 196.432C167.208 197.456 166.6 198.96 166.6 200.944C166.6 203.12 167.624 204.816 169.672 206.032C171.72 207.248 174.92 208.56 179.272 209.968C183.624 211.44 187.144 212.848 189.832 214.192C192.584 215.536 194.952 217.488 196.936 220.048C198.92 222.608 199.912 225.904 199.912 229.936C199.912 233.776 198.92 237.264 196.936 240.4C195.016 243.536 192.2 246.032 188.488 247.888C184.776 249.744 180.392 250.672 175.336 250.672ZM268.383 182.608V250H251.967V222.256H226.431V250H210.015V182.608H226.431V209.008H251.967V182.608H268.383ZM314.601 250L300.585 224.56H296.649V250H280.233V182.608H307.785C313.097 182.608 317.609 183.536 321.321 185.392C325.097 187.248 327.913 189.808 329.769 193.072C331.625 196.272 332.553 199.856 332.553 203.824C332.553 208.304 331.273 212.304 328.713 215.824C326.217 219.344 322.505 221.84 317.577 223.312L333.129 250H314.601ZM296.649 212.944H306.825C309.833 212.944 312.073 212.208 313.545 210.736C315.081 209.264 315.849 207.184 315.849 204.496C315.849 201.936 315.081 199.92 313.545 198.448C312.073 196.976 309.833 196.24 306.825 196.24H296.649V212.944ZM359.274 195.76V209.392H381.258V222.064H359.274V236.848H384.138V250H342.858V182.608H384.138V195.76H359.274ZM419.18 250.672C414.252 250.672 409.836 249.872 405.932 248.272C402.028 246.672 398.892 244.304 396.524 241.168C394.22 238.032 393.004 234.256 392.876 229.84H410.348C410.604 232.336 411.468 234.256 412.94 235.6C414.412 236.88 416.332 237.52 418.7 237.52C421.132 237.52 423.052 236.976 424.46 235.888C425.868 234.736 426.572 233.168 426.572 231.184C426.572 229.52 425.996 228.144 424.844 227.056C423.756 225.968 422.38 225.072 420.716 224.368C419.116 223.664 416.812 222.864 413.804 221.968C409.452 220.624 405.9 219.28 403.148 217.936C400.396 216.592 398.028 214.608 396.044 211.984C394.06 209.36 393.068 205.936 393.068 201.712C393.068 195.44 395.34 190.544 399.884 187.024C404.428 183.44 410.348 181.648 417.644 181.648C425.068 181.648 431.052 183.44 435.596 187.024C440.14 190.544 442.572 195.472 442.892 201.808H425.132C425.004 199.632 424.204 197.936 422.732 196.72C421.26 195.44 419.372 194.8 417.068 194.8C415.084 194.8 413.484 195.344 412.268 196.432C411.052 197.456 410.444 198.96 410.444 200.944C410.444 203.12 411.468 204.816 413.516 206.032C415.564 207.248 418.764 208.56 423.116 209.968C427.468 211.44 430.988 212.848 433.676 214.192C436.428 215.536 438.796 217.488 440.78 220.048C442.764 222.608 443.756 225.904 443.756 229.936C443.756 233.776 442.764 237.264 440.78 240.4C438.86 243.536 436.044 246.032 432.332 247.888C428.62 249.744 424.236 250.672 419.18 250.672ZM502.338 182.608V195.76H484.482V250H468.066V195.76H450.21V182.608H502.338ZM568.945 182.608V250H552.529V222.256H526.993V250H510.577V182.608H526.993V209.008H552.529V182.608H568.945ZM622.748 238.096H597.596L593.564 250H576.38L600.764 182.608H619.772L644.156 250H626.78L622.748 238.096ZM618.524 225.424L610.172 200.752L601.916 225.424H618.524Z" fill="white"/>
<path d="M106.672 231.664C106.672 236.592 105.872 241.008 104.272 244.912C102.672 248.816 100.304 251.952 97.168 254.32C94.032 256.624 90.256 257.84 85.84 257.968L85.84 240.496C88.336 240.24 90.256 239.376 91.6 237.904C92.88 236.432 93.52 234.512 93.52 232.144C93.52 229.712 92.976 227.792 91.888 226.384C90.736 224.976 89.168 224.272 87.184 224.272C85.52 224.272 84.144 224.848 83.056 226C81.968 227.088 81.072 228.464 80.368 230.128C79.664 231.728 78.864 234.032 77.968 237.04C76.624 241.392 75.28 244.944 73.936 247.696C72.592 250.448 70.608 252.816 67.984 254.8C65.36 256.784 61.936 257.776 57.712 257.776C51.44 257.776 46.544 255.504 43.024 250.96C39.44 246.416 37.648 240.496 37.648 233.2C37.648 225.776 39.44 219.792 43.024 215.248C46.544 210.704 51.472 208.272 57.808 207.952L57.808 225.712C55.632 225.84 53.936 226.64 52.72 228.112C51.44 229.584 50.8 231.472 50.8 233.776C50.8 235.76 51.344 237.36 52.432 238.576C53.456 239.792 54.96 240.4 56.944 240.4C59.12 240.4 60.816 239.376 62.032 237.328C63.248 235.28 64.56 232.08 65.968 227.728C67.44 223.376 68.848 219.856 70.192 217.168C71.536 214.416 73.488 212.048 76.048 210.064C78.608 208.08 81.904 207.088 85.936 207.088C89.776 207.088 93.264 208.08 96.4 210.064C99.536 211.984 102.032 214.8 103.888 218.512C105.744 222.224 106.672 226.608 106.672 231.664ZM51.76 180.569L65.392 180.569L65.392 158.585L78.064 158.585L78.064 180.569L92.848 180.569L92.848 155.705L106 155.705L106 196.985L38.608 196.985L38.608 155.705L51.76 155.705L51.76 180.569ZM55.696 146.104C48.848 145.848 43.568 143.608 39.856 139.384C36.144 135.16 34.288 129.432 34.288 122.2C34.288 117.4 35.12 113.304 36.784 109.912C38.448 106.456 40.72 103.864 43.6 102.136C46.48 100.344 49.712 99.448 53.296 99.448C57.52 99.448 60.976 100.504 63.664 102.616C66.288 104.728 68.08 107.192 69.04 110.008L69.424 110.008C70.64 106.36 72.656 103.48 75.472 101.368C78.288 99.256 81.904 98.2 86.32 98.2C90.288 98.2 93.808 99.128 96.88 100.984C99.888 102.776 102.256 105.432 103.984 108.952C105.712 112.408 106.576 116.536 106.576 121.336C106.576 129.016 104.688 135.16 100.912 139.768C97.136 144.312 91.44 146.712 83.824 146.968L83.824 131.032C86.64 130.968 88.88 130.168 90.544 128.632C92.144 127.096 92.944 124.856 92.944 121.912C92.944 119.416 92.24 117.496 90.832 116.152C89.36 114.744 87.44 114.04 85.072 114.04C82 114.04 79.792 115.032 78.448 117.016C77.04 118.936 76.336 122.04 76.336 126.328L76.336 129.4L62.992 129.4L62.992 126.328C62.992 123.064 62.448 120.44 61.36 118.456C60.208 116.408 58.192 115.384 55.312 115.384C53.008 115.384 51.216 116.024 49.936 117.304C48.656 118.584 48.016 120.344 48.016 122.584C48.016 125.016 48.752 126.84 50.224 128.056C51.696 129.208 53.52 129.88 55.696 130.072L55.696 146.104ZM70 88.555C58.992 88.555 50.32 86.443 43.984 82.219C37.648 77.931 34.48 71.051 34.48 61.579C34.48 52.107 37.648 45.259 43.984 41.035C50.32 36.747 58.992 34.603 70 34.603C81.136 34.603 89.872 36.747 96.208 41.035C102.544 45.259 105.712 52.107 105.712 61.579C105.712 71.051 102.544 77.931 96.208 82.219C89.872 86.443 81.136 88.555 70 88.555ZM70 50.731C63.536 50.731 58.576 51.435 55.12 52.843C51.6 54.251 49.84 57.163 49.84 61.579C49.84 65.995 51.6 68.907 55.12 70.315C58.576 71.723 63.536 72.427 70 72.427C74.352 72.427 77.968 72.171 80.848 71.659C83.664 71.147 85.968 70.123 87.76 68.587C89.488 66.987 90.352 64.651 90.352 61.579C90.352 58.507 89.488 56.203 87.76 54.667C85.968 53.067 83.664 52.011 80.848 51.499C77.968 50.987 74.352 50.731 70 50.731Z" fill="#2BEBC8"/>
</svg>
